<svg width="24" height="24" viewBox="0 0 24 24" fill="none" xmlns="http://www.w3.org/2000/svg">
<path d="M15.6689 4H8.33105C5.94287 4 4 5.94287 4 8.33105V15.669C4 18.0571 5.94287 20 8.33105 20H15.669C18.0571 20 20 18.0571 20 15.669V8.33105C20 5.94287 18.0571 4 15.6689 4V4ZM12 16.3749C9.58764 16.3749 7.62512 14.4123 7.62512 12C7.62512 9.58764 9.58764 7.62512 12 7.62512C14.4123 7.62512 16.3749 9.58764 16.3749 12C16.3749 14.4123 14.4123 16.3749 12 16.3749ZM16.4795 8.65685C15.7666 8.65685 15.1867 8.07702 15.1867 7.36413C15.1867 6.65124 15.7666 6.07129 16.4795 6.07129C17.1924 6.07129 17.7723 6.65124 17.7723 7.36413C17.7723 8.07702 17.1924 8.65685 16.4795 8.65685Z" fill="#9DA5C1"/>
<path d="M12.0004 8.56299C10.1053 8.56299 8.56348 10.1047 8.56348 11.9999C8.56348 13.8949 10.1053 15.4368 12.0004 15.4368C13.8955 15.4368 15.4372 13.8949 15.4372 11.9999C15.4372 10.1047 13.8955 8.56299 12.0004 8.56299Z" fill="#9DA5C1"/>
</svg>
