<svg width="24" height="24" viewBox="0 0 24 24" fill="none" xmlns="http://www.w3.org/2000/svg">
<g clip-path="url(#clip0)">
<path d="M7.63572 9.32324H4.19824V19.646H7.63572V9.32324Z" fill="#9DA5C1"/>
<path d="M18.9168 10.2664C18.1948 9.47817 17.2397 9.08398 16.0523 9.08398C15.6148 9.08398 15.2172 9.1378 14.8595 9.2455C14.5019 9.35313 14.1998 9.50415 13.9532 9.69861C13.7068 9.89308 13.5105 10.0736 13.3648 10.2402C13.2262 10.3984 13.0907 10.5828 12.9585 10.7913V9.3234H9.53125L9.54176 9.82346C9.5488 10.1569 9.55227 11.1846 9.55227 12.9067C9.55227 14.629 9.54533 16.8755 9.5314 19.6463H12.9585V13.8858C12.9585 13.5317 12.9965 13.2505 13.073 13.042C13.2189 12.6877 13.4392 12.391 13.7345 12.1515C14.0298 11.9118 14.396 11.792 14.8336 11.792C15.4307 11.792 15.87 11.9986 16.1513 12.4117C16.4325 12.8249 16.5732 13.3961 16.5732 14.1253V19.646H20.0002V13.7297C20 12.2087 19.6391 11.0544 18.9168 10.2664Z" fill="#9DA5C1"/>
<path d="M5.93746 4.35449C5.36115 4.35449 4.89418 4.52302 4.53644 4.85974C4.17874 5.19653 4 5.62173 4 6.13573C4 6.64254 4.1736 7.06628 4.52082 7.40647C4.86794 7.74669 5.32634 7.91689 5.89576 7.91689H5.9166C6.49999 7.91689 6.97054 7.74683 7.32813 7.40647C7.68572 7.06628 7.86103 6.64269 7.85413 6.13573C7.8472 5.62176 7.66999 5.19653 7.32287 4.85974C6.97579 4.52287 6.51382 4.35449 5.93746 4.35449Z" fill="#9DA5C1"/>
</g>
<defs>
<clipPath id="clip0">
<rect width="16" height="16" fill="white" transform="translate(4 4)"/>
</clipPath>
</defs>
</svg>
