<svg width="24" height="24" viewBox="0 0 24 24" fill="none" xmlns="http://www.w3.org/2000/svg">
<g clip-path="url(#clip0)">
<path d="M21.894 16.5997C21.8698 16.5475 21.8472 16.5042 21.8262 16.4696C21.4792 15.8446 20.8161 15.0775 19.8373 14.1681L19.8166 14.1472L19.8063 14.137L19.7958 14.1266H19.7853C19.341 13.7031 19.0597 13.4183 18.9419 13.2726C18.7264 12.9949 18.6781 12.7138 18.7959 12.429C18.8791 12.2138 19.1918 11.7593 19.7331 11.065C20.0178 10.697 20.2433 10.4021 20.4099 10.1799C21.611 8.58314 22.1317 7.56279 21.9719 7.11844L21.9099 7.01461C21.8682 6.95209 21.7606 6.8949 21.5872 6.84275C21.4135 6.7907 21.1914 6.78209 20.9206 6.81678L17.9217 6.8375C17.8731 6.82028 17.8037 6.82189 17.7134 6.84275C17.6231 6.86361 17.5779 6.87408 17.5779 6.87408L17.5257 6.90016L17.4843 6.93149C17.4496 6.9522 17.4114 6.98864 17.3697 7.04072C17.3282 7.09262 17.2936 7.15353 17.2658 7.22294C16.9393 8.06294 16.5681 8.84392 16.1515 9.56586C15.8946 9.99634 15.6587 10.3694 15.4433 10.6853C15.2281 11.0011 15.0476 11.2337 14.9019 11.3829C14.756 11.5322 14.6244 11.6518 14.5061 11.7421C14.3881 11.8325 14.298 11.8707 14.2355 11.8567C14.173 11.8427 14.1141 11.8289 14.0583 11.815C13.9612 11.7525 13.8831 11.6675 13.8242 11.5599C13.765 11.4523 13.7252 11.3169 13.7044 11.1537C13.6836 10.9905 13.6714 10.8501 13.6679 10.732C13.6646 10.6141 13.6661 10.4473 13.6732 10.2321C13.6804 10.0168 13.6836 9.87113 13.6836 9.79476C13.6836 9.53092 13.6888 9.24457 13.6991 8.93565C13.7096 8.62673 13.7181 8.38196 13.7252 8.20164C13.7323 8.02114 13.7356 7.83017 13.7356 7.62884C13.7356 7.42751 13.7233 7.26962 13.6991 7.15503C13.6752 7.04057 13.6385 6.92948 13.5901 6.82178C13.5414 6.71418 13.4701 6.63095 13.3766 6.57187C13.2829 6.51285 13.1664 6.46602 13.0278 6.43123C12.6598 6.34796 12.1912 6.30292 11.6219 6.29592C10.3307 6.28206 9.50105 6.36543 9.13311 6.54593C8.98733 6.6222 8.85541 6.7264 8.73746 6.85821C8.61247 7.011 8.59504 7.09437 8.68527 7.10809C9.10186 7.17049 9.39677 7.31977 9.57035 7.55579L9.6329 7.68085C9.68155 7.77108 9.73013 7.93083 9.77875 8.15988C9.8273 8.38893 9.85863 8.6423 9.87241 8.91986C9.90706 9.42672 9.90706 9.86059 9.87241 10.2215C9.83765 10.5826 9.80483 10.8637 9.7735 11.065C9.74217 11.2664 9.69534 11.4295 9.6329 11.5544C9.57035 11.6794 9.52873 11.7557 9.50787 11.7835C9.48704 11.8112 9.46968 11.8287 9.4559 11.8355C9.36566 11.8701 9.27182 11.8877 9.17469 11.8877C9.07742 11.8877 8.95947 11.839 8.82065 11.7418C8.68188 11.6446 8.53785 11.511 8.38856 11.3409C8.23928 11.1708 8.07093 10.933 7.88342 10.6276C7.69606 10.3222 7.50166 9.96119 7.30033 9.54467L7.13376 9.2426C7.02963 9.04828 6.88739 8.76532 6.70689 8.394C6.52628 8.02252 6.36664 7.6632 6.22786 7.31609C6.17238 7.17031 6.08904 7.05932 5.97799 6.98295L5.92587 6.95162C5.89122 6.9239 5.8356 6.89447 5.7593 6.8631C5.68289 6.83177 5.60316 6.8093 5.51978 6.79548L2.66657 6.8162C2.37501 6.8162 2.17718 6.88225 2.07302 7.01417L2.03133 7.07657C2.0105 7.11133 2 7.16684 2 7.24325C2 7.31963 2.02083 7.41336 2.06251 7.52435C2.47903 8.50327 2.93198 9.44736 3.42137 10.3568C3.91076 11.2662 4.33603 11.9987 4.69692 12.5538C5.05789 13.1092 5.42583 13.6334 5.80073 14.1262C6.17563 14.6191 6.42379 14.935 6.54521 15.0738C6.66677 15.2128 6.76225 15.3167 6.83166 15.3861L7.09204 15.636C7.25865 15.8027 7.5033 16.0022 7.82612 16.2348C8.14901 16.4674 8.50648 16.6965 8.89871 16.9223C9.291 17.1477 9.74739 17.3317 10.2681 17.4739C10.7887 17.6164 11.2955 17.6735 11.7884 17.6459H12.986C13.2288 17.625 13.4128 17.5486 13.5379 17.4168L13.5793 17.3646C13.6072 17.3232 13.6333 17.2588 13.6573 17.1722C13.6817 17.0854 13.6938 16.9898 13.6938 16.8858C13.6867 16.5874 13.7094 16.3184 13.7614 16.0789C13.8133 15.8395 13.8724 15.659 13.9386 15.5374C14.0047 15.416 14.0793 15.3135 14.1624 15.2304C14.2456 15.1471 14.3049 15.0967 14.3397 15.0793C14.3743 15.0619 14.4019 15.05 14.4227 15.0429C14.5893 14.9874 14.7854 15.0412 15.0112 15.2044C15.2369 15.3676 15.4486 15.569 15.6465 15.8084C15.8444 16.048 16.0821 16.3169 16.3597 16.6153C16.6376 16.9139 16.8805 17.1358 17.0886 17.2818L17.2968 17.4068C17.4359 17.4902 17.6164 17.5665 17.8386 17.636C18.0604 17.7053 18.2547 17.7227 18.4215 17.688L21.0872 17.6464C21.3509 17.6464 21.556 17.6028 21.7015 17.5161C21.8474 17.4294 21.934 17.3338 21.9619 17.2298C21.9898 17.1257 21.9913 17.0076 21.9672 16.8756C21.9425 16.7439 21.9182 16.6518 21.894 16.5997Z" fill="#9DA5C1"/>
</g>
<defs>
<clipPath id="clip0">
<rect width="20" height="20" fill="white" transform="translate(2 1)"/>
</clipPath>
</defs>
</svg>
