<svg width="48" height="48" viewBox="0 0 48 48" fill="none" xmlns="http://www.w3.org/2000/svg">
<path d="M41.4957 25.2141H22.7915V6.5099C22.7915 5.75407 22.1868 5.14941 21.431 5.14941C9.61997 5.14941 0.00585938 14.7635 0.00585938 26.5745C0.00585938 38.3856 9.61997 47.9997 21.431 47.9997C33.2421 47.9997 42.8562 38.3856 42.8562 26.5745C42.8562 25.8288 42.2414 25.2141 41.4957 25.2141ZM21.431 45.2787C11.1215 45.2787 2.72683 36.884 2.72683 26.5745C2.72683 16.7186 10.3859 8.61613 20.0705 7.92077V26.5745C20.0705 27.3304 20.6752 27.935 21.431 27.935H40.0848C39.3894 37.6197 31.287 45.2787 21.431 45.2787Z" fill="black"/>
<path d="M47.9966 21.3546C47.9764 16.1545 46.0717 11.1459 42.6352 7.24585C38.5639 2.64035 32.7188 0 26.5714 0C25.8156 0 25.2109 0.604661 25.2109 1.36049V21.4252C25.2109 22.181 25.8156 22.7856 26.5714 22.7856H46.6361C47.3919 22.7856 47.9966 22.181 47.9966 21.4252C47.9966 21.405 47.9966 21.3848 47.9966 21.3546ZM27.9319 20.0747V2.78144C32.7894 3.13416 37.3445 5.38148 40.5895 9.05984C43.3105 12.1335 44.9229 16.0034 45.2252 20.0747H27.9319Z" fill="black"/>
</svg>
