<svg width="48" height="48" viewBox="0 0 48 48" fill="none" xmlns="http://www.w3.org/2000/svg">
<path d="M37.0203 3.84801C36.9903 3.82863 36.9609 3.80848 36.931 3.78918C33.1967 1.39161 28.7578 0 23.9999 0C10.7663 0 0 10.7664 0 24C0 37.2336 10.7663 47.9999 23.9999 47.9999C37.2336 47.9999 48 37.2336 48 24C48.0001 15.5624 43.6227 8.12872 37.0203 3.84801ZM45.2314 24.1558C42.6835 21.0349 40.8835 18.6899 40.8619 18.6618C40.6001 18.3202 40.1944 18.1201 39.7641 18.1201H27.084C26.7171 18.1201 26.3654 18.2658 26.1058 18.5253L19.4199 25.2113C19.1605 25.4707 19.0147 25.8226 19.0147 26.1894V33.7975C19.0147 34.5615 19.6341 35.1808 20.398 35.1808H27.084V45.0088C26.0769 45.1558 25.0473 45.2335 24 45.2335C19.6419 45.2335 15.5869 43.913 12.2123 41.6521L10.2085 32.6829C10.1133 32.2568 9.82245 31.9006 9.42394 31.7221L3.53695 29.0851L3.34769 26.0091L8.82856 25.2544C9.38323 25.1781 9.83711 24.7749 9.97845 24.2333L12.745 13.6279C12.802 13.4097 12.8047 13.181 12.753 12.9615L11.3398 6.96409C14.8772 4.32856 19.2596 2.76667 23.9999 2.76667C25.4793 2.76667 26.9237 2.91914 28.3188 3.20863L24.1439 5.36322C23.7398 5.57185 23.4641 5.96566 23.4063 6.41672L22.2535 15.4082C22.203 15.8025 22.3244 16.1993 22.5871 16.4979C22.8497 16.7963 23.2281 16.9673 23.6256 16.9673H30.3116C30.8509 16.9673 31.3408 16.6539 31.5673 16.1646L32.9241 13.2297L42.3198 13.2763C44.1703 16.4255 45.2334 20.0907 45.2334 24C45.2335 24.0521 45.2318 24.1039 45.2314 24.1558ZM40.3776 10.4999L32.0487 10.4588C32.0464 10.4588 32.0441 10.4588 32.0418 10.4588C31.5027 10.4588 31.0125 10.7719 30.7862 11.2614L29.4273 14.2007H25.1977L26.0582 7.48872L32.0967 4.37216C35.3368 5.71373 38.1761 7.83397 40.3776 10.4999ZM8.97892 9.00707L9.98127 13.2617L7.53476 22.6397L2.77961 23.2945C2.96236 17.7272 5.29726 12.6954 8.97892 9.00707ZM4.58118 32.5842L7.6597 33.9633L8.72543 38.7337C7.0077 36.9534 5.59789 34.8748 4.58118 32.5842ZM29.8504 44.4132V33.7975C29.8504 33.0336 29.231 32.4142 28.4671 32.4142H21.7811V26.7623L27.6568 20.8866H39.0855C39.9649 22.0178 42.1405 24.7895 44.7798 27.9567C44.8016 27.9827 44.8249 28.0066 44.848 28.0307C43.3304 35.8959 37.4595 42.2292 29.8504 44.4132Z" fill="black"/>
</svg>
