<svg width="48" height="48" viewBox="0 0 48 48" fill="none" xmlns="http://www.w3.org/2000/svg">
<path d="M42.0797 2.44141H5.92027C2.66113 2.44141 0 5.09257 0 8.36167V31.2952C0 34.5544 2.65116 37.2155 5.92027 37.2155H22.6545V42.8667H14.3123C13.5648 42.8667 12.9668 43.4647 12.9668 44.2122C12.9668 44.9597 13.5648 45.5577 14.3123 45.5577H33.6877C34.4352 45.5577 35.0332 44.9597 35.0332 44.2122C35.0332 43.4647 34.4352 42.8667 33.6877 42.8667H25.3455V37.2155H42.0797C45.3389 37.2155 48 34.5643 48 31.2952V8.36167C48 5.09257 45.3488 2.44141 42.0797 2.44141ZM5.92027 5.13244H42.0897C43.8638 5.13244 45.3189 6.57762 45.3189 8.36167V27.5278H2.69103V8.36167C2.69103 6.57762 4.13621 5.13244 5.92027 5.13244ZM42.0797 34.5245H5.92027C4.14618 34.5245 2.69103 33.0793 2.69103 31.2952V30.2188H45.309V31.2952C45.309 33.0693 43.8638 34.5245 42.0797 34.5245Z" fill="black"/>
</svg>
