<svg width="48" height="48" viewBox="0 0 48 48" fill="none" xmlns="http://www.w3.org/2000/svg">
<g clip-path="url(#clip0)">
<path d="M45.5431 18.9622L42.174 18.3907C41.823 17.2576 41.3718 16.1646 40.8203 15.1218L42.8057 12.3443C43.6479 11.1611 43.5176 9.54677 42.4848 8.52401L39.4967 5.53593C38.9352 4.97441 38.1932 4.66358 37.4011 4.66358C36.7794 4.66358 36.1878 4.85409 35.6864 5.21507L32.8989 7.20043C31.816 6.62889 30.6829 6.15761 29.5097 5.80666L28.9482 2.47767C28.7076 1.04379 27.4742 0.000976562 26.0203 0.000976562H21.7989C20.345 0.000976562 19.1116 1.04379 18.871 2.47767L18.2894 5.88688C17.1664 6.23783 16.0734 6.69908 15.0306 7.26059L12.2732 5.27523C11.7718 4.91425 11.1702 4.72374 10.5485 4.72374C9.75636 4.72374 9.00433 5.03458 8.45284 5.59609L5.45474 8.58417C4.43198 9.60693 4.2916 11.2213 5.13387 12.4045L7.13929 15.2221C6.5878 16.2749 6.14661 17.3679 5.80569 18.501L2.47669 19.0625C1.04282 19.3031 0 20.5365 0 21.9904V26.2118C0 27.6657 1.04282 28.8991 2.47669 29.1397L5.8859 29.7213C6.23685 30.8443 6.6981 31.9373 7.25962 32.9801L5.28428 35.7275C4.442 36.9107 4.57236 38.5251 5.60515 39.5478L8.59322 42.5359C9.15474 43.0974 9.89674 43.4083 10.6889 43.4083C11.3106 43.4083 11.9022 43.2178 12.4035 42.8568L15.2211 40.8514C16.2339 41.3828 17.2967 41.814 18.3897 42.1549L18.9512 45.524C19.1919 46.9579 20.4252 48.0007 21.8791 48.0007H26.1106C27.5645 48.0007 28.7978 46.9579 29.0385 45.524L29.61 42.1549C30.7431 41.8039 31.836 41.3527 32.8788 40.8012L35.6563 42.7866C36.1577 43.1476 36.7593 43.3381 37.381 43.3381C38.1731 43.3381 38.9152 43.0272 39.4767 42.4657L42.4647 39.4776C43.4875 38.4549 43.6279 36.8405 42.7856 35.6573L40.8002 32.8698C41.3517 31.8169 41.813 30.724 42.1539 29.601L45.523 29.0394C46.9569 28.7988 47.9997 27.5655 47.9997 26.1115V21.8901C48.0198 20.4362 46.9769 19.2029 45.5431 18.9622ZM45.3124 26.1115C45.3124 26.2419 45.2222 26.3522 45.0918 26.3722L40.8805 27.0741C40.349 27.1644 39.9279 27.5554 39.7975 28.0668C39.4165 29.5408 38.8349 30.9546 38.0528 32.2682C37.7821 32.7294 37.8021 33.301 38.113 33.7421L40.5897 37.2316C40.6599 37.3318 40.6498 37.4823 40.5596 37.5725L37.5715 40.5606C37.5013 40.6308 37.4311 40.6408 37.381 40.6408C37.3208 40.6408 37.2707 40.6207 37.2306 40.5906L33.7512 38.114C33.32 37.8031 32.7385 37.7831 32.2772 38.0538C30.9637 38.8359 29.5498 39.4175 28.0759 39.7985C27.5545 39.9289 27.1634 40.36 27.0832 40.8814L26.3713 45.0928C26.3512 45.2232 26.2409 45.3134 26.1106 45.3134H21.8891C21.7588 45.3134 21.6485 45.2232 21.6284 45.0928L20.9265 40.8814C20.8363 40.35 20.4452 39.9289 19.9339 39.7985C18.5 39.4275 17.1163 38.856 15.8228 38.114C15.6122 37.9936 15.3715 37.9335 15.1409 37.9335C14.8702 37.9335 14.5894 38.0137 14.3588 38.1841L10.8493 40.6809C10.7992 40.711 10.749 40.731 10.6989 40.731C10.6588 40.731 10.5786 40.721 10.5084 40.6508L7.52032 37.6627C7.43008 37.5725 7.42005 37.4321 7.49024 37.3218L9.9569 33.8625C10.2677 33.4213 10.2878 32.8397 10.0171 32.3785C9.23495 31.0749 8.63333 29.6611 8.2523 28.1871C8.11192 27.6758 7.69078 27.2847 7.16937 27.1945L2.92791 26.4725C2.79756 26.4524 2.70732 26.3421 2.70732 26.2118V21.9904C2.70732 21.86 2.79756 21.7497 2.92791 21.7297L7.10921 21.0278C7.64065 20.9375 8.07181 20.5465 8.20216 20.0251C8.57317 18.5511 9.14471 17.1273 9.9168 15.8137C10.1875 15.3525 10.1574 14.7809 9.84661 14.3497L7.34986 10.8403C7.27967 10.74 7.2897 10.5896 7.37994 10.4993L10.368 7.51127C10.4382 7.44108 10.5084 7.43105 10.5585 7.43105C10.6187 7.43105 10.6688 7.45111 10.7089 7.48119L14.1683 9.94785C14.6095 10.2587 15.191 10.2787 15.6523 10.008C16.9558 9.2259 18.3696 8.62428 19.8436 8.24325C20.355 8.10287 20.7461 7.68173 20.8363 7.16032L21.5583 2.91886C21.5783 2.78851 21.6886 2.69826 21.819 2.69826H26.0404C26.1707 2.69826 26.281 2.78851 26.3011 2.91886L27.003 7.10016C27.0932 7.6316 27.4843 8.06276 28.0057 8.19311C29.5198 8.57414 30.9637 9.16574 32.3073 9.95788C32.7685 10.2286 33.3401 10.2086 33.7813 9.89772L37.2406 7.411C37.2908 7.38092 37.3409 7.36086 37.391 7.36086C37.4311 7.36086 37.5114 7.37089 37.5815 7.44108L40.5696 10.4292C40.6599 10.5194 40.6699 10.6598 40.5997 10.7701L38.123 14.2495C37.8122 14.6806 37.7921 15.2622 38.0629 15.7235C38.845 17.037 39.4265 18.4508 39.8076 19.9248C39.9379 20.4462 40.3691 20.8373 40.8905 20.9175L45.1019 21.6294C45.2322 21.6495 45.3225 21.7598 45.3225 21.8901V26.1115H45.3124Z" fill="black"/>
<path d="M24.0054 13.6367C18.29 13.6367 13.6475 18.2793 13.6475 23.9947C13.6475 29.7101 18.29 34.3527 24.0054 34.3527C29.7209 34.3527 34.3634 29.7101 34.3634 23.9947C34.3634 18.2793 29.7209 13.6367 24.0054 13.6367ZM24.0054 31.6454C19.784 31.6454 16.3548 28.2161 16.3548 23.9947C16.3548 19.7733 19.784 16.344 24.0054 16.344C28.2269 16.344 31.6561 19.7733 31.6561 23.9947C31.6561 28.2161 28.2269 31.6454 24.0054 31.6454Z" fill="black"/>
</g>
<defs>
<clipPath id="clip0">
<rect width="48" height="48" fill="white"/>
</clipPath>
</defs>
</svg>
