<svg width="48" height="48" viewBox="0 0 48 48" fill="none" xmlns="http://www.w3.org/2000/svg">
<g clip-path="url(#clip0)">
<path d="M30.8908 8.39502H8.57661C6.48282 8.39502 4.78223 10.0956 4.78223 12.1894V44.2058C4.78223 46.2996 6.48282 48.0002 8.57661 48.0002H30.8908C32.9846 48.0002 34.6852 46.2996 34.6852 44.2058V12.1894C34.6753 10.0956 32.9747 8.39502 30.8908 8.39502ZM32.0212 44.196C32.0212 44.8251 31.5101 45.3363 30.8809 45.3363H8.56678C7.93766 45.3363 7.4265 44.8251 7.4265 44.196V12.1894C7.4265 11.5603 7.93766 11.0491 8.56678 11.0491H30.8809C31.5101 11.0491 32.0212 11.5603 32.0212 12.1894V44.196Z" fill="black"/>
<path d="M39.423 0H17.1088C15.015 0 13.3145 1.70059 13.3145 3.79439C13.3145 4.53164 13.9043 5.12144 14.6415 5.12144C15.3788 5.12144 15.9686 4.53164 15.9686 3.79439C15.9686 3.16527 16.4797 2.65411 17.1088 2.65411H39.423C40.0521 2.65411 40.5633 3.16527 40.5633 3.79439V35.8108C40.5633 36.4399 40.0521 36.9511 39.423 36.9511C38.6857 36.9511 38.0959 37.5409 38.0959 38.2781C38.0959 39.0154 38.6857 39.6052 39.423 39.6052C41.5168 39.6052 43.2174 37.9046 43.2174 35.8108V3.79439C43.2174 1.70059 41.5168 0 39.423 0Z" fill="black"/>
</g>
<defs>
<clipPath id="clip0">
<rect width="48" height="48" fill="white"/>
</clipPath>
</defs>
</svg>
