<svg width="48" height="48" viewBox="0 0 48 48" fill="none" xmlns="http://www.w3.org/2000/svg">
<path d="M32.5073 19.078L27.8998 18.744L26.161 14.4706C25.7975 13.5864 24.9526 13.0166 23.9997 13.0166C23.0468 13.0166 22.2019 13.5864 21.8384 14.4706L20.0996 18.744L15.4921 19.078C14.5392 19.1468 13.7435 19.7755 13.4487 20.6793C13.154 21.5831 13.4389 22.5655 14.1659 23.1844L17.6927 26.1611L16.5924 30.6408C16.4156 31.3383 16.5728 32.0653 17.0149 32.6253C17.4569 33.1951 18.1446 33.5291 18.8519 33.5291C19.2842 33.5291 19.7066 33.4112 20.0799 33.1754L23.9997 30.7391L27.9195 33.1754C28.2928 33.4112 28.7152 33.5291 29.1475 33.5291C29.8548 33.5291 30.5425 33.1951 30.9846 32.6253C31.4266 32.0653 31.5838 31.3383 31.407 30.6408L30.3067 26.1611L33.8335 23.1844C34.5605 22.5753 34.8454 21.5929 34.5507 20.6793C34.2559 19.7755 33.4504 19.1468 32.5073 19.078ZM28.1847 24.8054C27.8311 25.1001 27.6837 25.5717 27.7918 26.0137L29.0296 31.0338L24.6383 28.3027C24.2453 28.0571 23.7541 28.0571 23.371 28.3027L18.9698 31.0534L20.2175 26.0039C20.3255 25.5618 20.1782 25.0903 19.8245 24.7956L15.8654 21.4554L21.023 21.0821C21.4749 21.0526 21.8777 20.7579 22.0546 20.3355L23.9997 15.5512L25.9547 20.3453C26.1315 20.7677 26.5245 21.0624 26.9862 21.0919L32.1438 21.4652L28.1847 24.8054Z" fill="black"/>
<path d="M45.8875 24.7663C45.4848 24.2161 45.4749 23.4597 45.8777 22.8997L46.7128 21.711C47.371 20.7777 47.6067 19.5989 47.3415 18.4789C47.0762 17.359 46.3493 16.4061 45.3374 15.8657L44.0603 15.1781C43.4512 14.8539 43.127 14.1858 43.2351 13.508L43.4807 12.0737C43.6673 10.9439 43.3628 9.78469 42.6456 8.89071C41.9186 7.99673 40.8478 7.45641 39.7083 7.40729L38.2445 7.35817C37.5568 7.32869 36.9674 6.86697 36.7807 6.20876L36.3779 4.81375C35.8867 3.1142 34.3051 1.9255 32.5269 1.9255C31.9866 1.9255 31.4463 2.03357 30.9453 2.24969L29.6092 2.81948C28.9903 3.08473 28.2338 2.91772 27.7918 2.4167L26.8192 1.33606C26.0627 0.491199 24.9723 0 23.8425 0C22.6833 0 21.583 0.501023 20.8167 1.37536L19.8736 2.48547C19.4315 2.99632 18.6849 3.17315 18.0562 2.91772L16.7103 2.36758C16.2191 2.1711 15.7083 2.06304 15.1876 2.06304C13.3898 2.06304 11.7983 3.27139 11.3268 5.01023L10.9436 6.40524C10.7668 7.06345 10.1773 7.535 9.49949 7.57429L8.05537 7.66271C6.90596 7.73148 5.84497 8.28162 5.13764 9.18543C4.43032 10.0892 4.14542 11.2485 4.35172 12.3782L4.61697 13.8027C4.74468 14.4806 4.42049 15.1584 3.82123 15.4924L2.55393 16.1998C1.55189 16.7597 0.834736 17.7225 0.589136 18.8424C0.343536 19.9623 0.589136 21.1412 1.26699 22.0647L2.12168 23.2337C2.52446 23.7839 2.53429 24.5403 2.1315 25.1003L1.29646 26.289C0.638256 27.2223 0.40248 28.4011 0.667728 29.5211C0.932976 30.641 1.65995 31.5841 2.67182 32.1343L3.94894 32.8219C4.55803 33.1461 4.88222 33.8142 4.77415 34.492L4.52855 35.9263C4.3419 37.0561 4.64644 38.2153 5.36359 39.1093C6.09057 40.0033 7.16138 40.5436 8.30097 40.5927L9.75492 40.6517C10.4426 40.6811 11.032 41.1429 11.2187 41.8011L11.6215 43.1961C12.1127 44.8956 13.6943 46.0843 15.4725 46.0843C16.0128 46.0843 16.5531 45.9763 17.0541 45.7601L18.3902 45.1903C19.0091 44.9251 19.7656 45.0921 20.2076 45.5931L21.1802 46.6738C21.9367 47.5186 23.0271 48 24.1569 48C25.3161 48 26.4164 47.499 27.1827 46.6246L28.1258 45.5145C28.5678 45.0037 29.3145 44.8269 29.9432 45.0823L31.2891 45.6324C31.7803 45.8289 32.2911 45.937 32.8118 45.937C34.6096 45.937 36.2011 44.7286 36.6726 42.9898L37.0558 41.5948C37.2326 40.9366 37.822 40.465 38.4999 40.4257L39.944 40.3471C41.0934 40.2783 42.1544 39.7282 42.8617 38.8244C43.5691 37.9206 43.854 36.7614 43.6477 35.6316L43.3824 34.2071C43.2547 33.5293 43.5789 32.8514 44.1782 32.5272L45.4455 31.8199C46.4475 31.2599 47.1647 30.2972 47.4103 29.1772C47.6559 28.0573 47.4103 26.8784 46.7324 25.955L45.8875 24.7663ZM45.0721 28.6467C44.9739 29.0986 44.689 29.472 44.2862 29.6979L43.0189 30.4052C41.5159 31.2403 40.7103 32.9398 41.0247 34.6296L41.2899 36.054C41.3783 36.5059 41.2604 36.9677 40.9755 37.3312C40.6907 37.6946 40.278 37.9108 39.8163 37.9402L38.3722 38.0188C36.653 38.1171 35.199 39.2959 34.7373 40.9562L34.3542 42.3512C34.1675 43.0487 33.529 43.5301 32.8118 43.5301C32.6055 43.5301 32.3992 43.4908 32.2027 43.4122L30.8568 42.8621C30.3656 42.6656 29.8548 42.5575 29.3341 42.5575C28.1749 42.5575 27.0746 43.0585 26.3083 43.9329L25.3554 45.0233C25.0509 45.377 24.6186 45.5735 24.1471 45.5735C23.6853 45.5735 23.2629 45.3868 22.9584 45.043L21.9858 43.9623C21.2293 43.1175 20.1389 42.6263 18.9993 42.6263C18.4491 42.6263 17.9186 42.7343 17.4176 42.9505L16.0816 43.5203C15.8753 43.6087 15.669 43.648 15.4528 43.648C14.7455 43.648 14.1168 43.1764 13.9203 42.4986L13.5175 41.1036C13.0361 39.4531 11.5625 38.2939 9.84333 38.2153L8.38938 38.1564C7.92765 38.1367 7.50522 37.9304 7.22033 37.5669C6.92561 37.2034 6.80772 36.7515 6.88631 36.2996L7.12209 34.8653C7.40698 33.1658 6.58177 31.4859 5.05905 30.6705L3.78193 29.9828C3.36932 29.7667 3.08443 29.3934 2.98619 28.9415C2.87812 28.4896 2.96654 28.0278 3.23179 27.6545L4.06683 26.4658C5.05905 25.061 5.04923 23.1846 4.02753 21.7896L3.17284 20.6205C2.89777 20.2472 2.79953 19.7855 2.9076 19.3336C3.00584 18.8817 3.29073 18.5084 3.69352 18.2824L4.96081 17.5751C6.46388 16.7401 7.26945 15.0405 6.95508 13.3508L6.70948 11.946C6.62106 11.4842 6.73895 11.0323 7.02385 10.6688C7.30874 10.3054 7.72135 10.0892 8.18308 10.0598L9.6272 9.97135C11.3464 9.87311 12.8004 8.69423 13.2621 7.03397L13.6452 5.63897C13.8319 4.94147 14.4704 4.46009 15.1876 4.46009C15.3939 4.46009 15.6002 4.49939 15.7967 4.57798L17.1426 5.12812C17.6338 5.3246 18.1446 5.43266 18.6653 5.43266C19.8245 5.43266 20.9248 4.93164 21.6911 4.05731L22.644 2.96684C22.9485 2.61318 23.3808 2.4167 23.8523 2.4167C24.3141 2.4167 24.7365 2.60336 25.041 2.9472L26.0136 4.02783C26.7701 4.8727 27.8605 5.3639 29.0001 5.3639C29.5502 5.3639 30.0807 5.25583 30.5818 5.03971L31.9178 4.46991C32.1241 4.3815 32.3304 4.3422 32.5466 4.3422C33.2539 4.3422 33.8826 4.81375 34.0791 5.49161L34.4819 6.88661C34.9633 8.53704 36.4369 9.69627 38.1561 9.77487L39.61 9.83381C40.0717 9.85346 40.4942 10.0598 40.7791 10.4233C41.0738 10.7867 41.1917 11.2386 41.1131 11.6905L40.8773 13.1248C40.5924 14.8244 41.4176 16.5043 42.9403 17.3197L44.2175 18.0074C44.6301 18.2235 44.915 18.5968 45.023 19.0487C45.1311 19.5006 45.0427 19.9623 44.7774 20.3357L43.9424 21.5244C42.9502 22.9292 42.96 24.8056 43.9817 26.2006L44.8364 27.3696C45.0721 27.7331 45.1704 28.185 45.0721 28.6467Z" fill="black"/>
</svg>
